<svg id="svg" xmlns="http://www.w3.org/2000/svg" xmlns:xlink="http://www.w3.org/1999/xlink" width="400" height="400" viewBox="0, 0, 400,400" version="1.1"><g id="svgg"><path id="path0" d="M390.287 0.697 C 389.507 1.958,376.308 6.807,369.141 8.465 C 352.504 12.314,342.755 12.382,308.594 8.886 C 256.224 3.527,222.474 6.704,187.342 20.301 C 112.687 49.194,36.599 129.461,14.487 202.647 C 4.750 234.876,3.653 261.964,9.848 317.188 C 13.161 346.718,9.918 374.652,1.521 388.912 C -1.837 394.616,0.425 400.000,6.181 400.000 C 9.600 400.000,12.167 397.672,14.036 392.877 C 15.661 388.706,388.350 16.056,392.959 13.993 C 399.920 10.877,402.316 5.441,398.438 1.562 C 396.813 -0.062,391.129 -0.666,390.287 0.697 M316.406 22.754 C 335.486 24.613,357.308 24.425,366.406 22.322 C 369.199 21.677,372.011 21.136,372.656 21.121 C 373.300 21.106,294.565 100.357,197.688 197.233 C 100.812 294.110,21.416 373.239,21.252 373.075 C 21.088 372.911,21.549 370.025,22.275 366.662 C 24.509 356.311,24.674 336.082,22.684 316.406 C 14.256 233.071,36.047 180.286,108.850 107.682 C 165.345 51.341,212.823 25.662,269.531 20.774 C 276.576 20.167,300.013 21.157,316.406 22.754 " stroke="none" fill="#000000" fill-rule="evenodd"></path></g></svg>