<svg id="svg" xmlns="http://www.w3.org/2000/svg" xmlns:xlink="http://www.w3.org/1999/xlink" width="400" height="400" viewBox="0, 0, 400,400" version="1.1"><g id="svgg"><path id="path0" d="M69.922 1.143 C 38.144 6.964,11.290 29.464,2.573 57.572 C -0.228 66.603,-0.706 97.990,1.820 107.031 C 7.817 128.498,26.202 148.000,47.251 155.222 C 83.301 167.592,113.452 155.462,113.630 128.516 C 113.723 114.494,102.890 108.112,87.818 113.310 C 71.582 118.910,55.225 112.613,50.045 98.769 C 35.704 60.441,80.159 34.377,109.375 63.984 C 120.335 75.090,123.171 83.255,124.191 106.641 C 125.164 128.952,126.266 133.031,134.212 143.750 C 144.544 157.686,155.398 169.912,178.573 193.719 C 185.909 201.256,195.226 210.924,199.276 215.204 C 203.327 219.484,209.980 226.514,214.063 230.826 C 229.614 247.252,240.254 258.120,264.909 282.761 C 278.910 296.754,300.456 318.574,312.790 331.250 C 347.135 366.549,377.295 395.125,383.758 398.490 C 396.481 405.116,404.680 391.001,397.029 375.644 C 393.873 369.312,389.312 363.313,375.971 347.954 C 370.044 341.130,360.809 330.498,355.449 324.327 C 350.089 318.157,344.169 311.301,342.293 309.093 C 340.418 306.885,332.684 298.074,325.106 289.514 C 317.528 280.953,304.152 265.836,295.382 255.920 C 286.612 246.004,273.215 230.859,265.612 222.266 C 187.058 133.479,178.242 121.113,176.496 97.266 C 171.520 29.276,128.442 -9.577,69.922 1.143 M107.868 15.121 C 138.994 22.383,160.006 54.071,163.240 98.626 C 164.952 122.206,174.945 138.736,216.735 187.109 C 223.364 194.783,255.533 231.258,289.082 269.141 C 316.343 299.923,340.268 327.188,350.000 338.561 C 351.504 340.319,355.205 344.579,358.225 348.027 C 376.901 369.351,386.905 382.106,385.812 383.198 C 384.521 384.489,266.929 266.807,217.196 214.453 C 204.134 200.703,187.451 183.301,180.121 175.781 C 161.398 156.571,144.760 136.917,140.872 129.415 C 138.728 125.279,138.265 122.071,137.518 106.217 C 136.088 75.832,129.551 61.227,111.310 47.662 C 83.313 26.842,41.239 40.872,35.399 72.976 C 30.611 99.297,41.704 120.481,63.705 127.029 C 70.815 129.145,84.163 128.957,90.018 126.658 C 92.661 125.621,95.696 125.003,97.440 125.147 L 100.391 125.391 100.264 129.104 C 99.867 140.737,91.321 146.291,73.828 146.286 C 31.863 146.275,5.047 109.700,14.452 65.303 C 22.037 29.503,66.693 5.514,107.868 15.121 " stroke="none" fill="#000000" fill-rule="evenodd"></path></g></svg>