<svg id="svg" xmlns="http://www.w3.org/2000/svg" xmlns:xlink="http://www.w3.org/1999/xlink" width="400" height="400" viewBox="0, 0, 400,400" version="1.1"><g id="svgg"><path id="path0" d="M0.000 0.660 C 0.000 1.023,7.860 21.853,17.467 46.949 C 27.074 72.045,35.072 92.949,35.240 93.401 C 35.409 93.854,40.645 98.933,46.875 104.687 C 53.105 110.442,60.840 117.664,64.063 120.737 C 67.285 123.810,72.734 128.897,76.172 132.040 C 81.837 137.221,97.814 152.095,110.938 164.405 C 113.730 167.025,120.934 173.732,126.946 179.311 C 142.295 193.553,160.285 210.302,172.656 221.870 C 178.457 227.293,186.016 234.317,189.453 237.478 C 192.891 240.638,200.977 248.158,207.422 254.187 C 226.797 272.312,238.936 283.617,248.979 292.887 L 258.505 301.680 255.531 306.504 C 253.895 309.157,249.872 315.638,246.591 320.906 C 238.434 334.002,238.429 333.921,248.117 343.782 C 259.425 355.291,258.968 355.393,277.099 337.325 C 289.381 325.085,290.645 324.039,291.928 325.058 C 294.803 327.341,345.020 372.917,347.461 375.458 C 348.858 376.913,350.000 378.929,350.000 379.942 C 350.000 386.214,357.886 395.617,365.563 398.499 C 390.188 407.742,411.195 377.949,394.119 357.999 C 391.217 354.609,383.049 350.000,379.942 350.000 C 378.929 350.000,376.913 348.858,375.458 347.461 C 372.917 345.020,327.341 294.803,325.058 291.928 C 324.039 290.645,325.085 289.381,337.325 277.099 C 355.393 258.968,355.291 259.425,343.782 248.117 C 333.109 237.631,335.886 237.119,307.683 254.773 L 301.695 258.522 292.887 248.987 C 284.559 239.971,280.550 235.665,253.125 206.274 C 246.895 199.597,237.230 189.213,231.649 183.200 C 226.068 177.186,219.365 169.980,216.753 167.188 C 210.157 160.134,191.431 140.008,179.311 126.946 C 173.732 120.934,167.025 113.730,164.405 110.938 C 152.095 97.814,137.221 81.837,132.040 76.172 C 128.897 72.734,123.823 67.285,120.764 64.063 C 117.706 60.840,110.465 53.105,104.672 46.875 C 94.689 36.137,93.856 35.437,88.672 33.442 C 9.004 2.772,0.000 -0.556,0.000 0.660 M46.875 31.735 C 89.340 47.933,86.251 46.577,89.926 50.628 C 91.757 52.646,97.692 59.043,103.113 64.844 C 118.457 81.260,133.457 97.356,139.453 103.838 C 142.461 107.090,154.436 119.949,166.064 132.414 C 177.692 144.879,192.081 160.352,198.040 166.797 C 203.999 173.242,210.858 180.625,213.282 183.203 C 221.364 191.796,239.404 211.150,254.355 227.266 C 262.487 236.032,273.813 248.239,279.523 254.392 L 289.906 265.581 285.102 268.532 C 276.069 274.083,274.547 275.506,270.254 282.414 C 267.923 286.166,265.789 289.285,265.511 289.345 C 265.054 289.443,223.198 250.902,207.031 235.497 C 203.379 232.017,190.020 219.548,177.344 207.789 C 141.108 174.173,101.177 137.024,92.552 128.906 C 88.215 124.824,76.221 113.646,65.899 104.065 C 49.445 88.792,46.931 86.145,45.496 82.581 C 43.410 77.399,41.766 73.129,31.743 46.875 C 27.231 35.059,23.280 24.714,22.963 23.888 C 22.482 22.636,22.636 22.482,23.888 22.963 C 24.714 23.280,35.059 27.228,46.875 31.735 M334.216 257.252 L 335.892 259.036 297.406 297.516 L 258.921 335.995 257.159 334.120 L 255.397 332.245 264.686 317.099 C 269.795 308.769,276.371 298.068,279.299 293.320 L 284.623 284.686 300.710 274.767 C 309.558 269.311,320.137 262.763,324.219 260.217 C 332.947 254.772,332.117 255.019,334.216 257.252 M338.194 326.700 L 361.742 352.618 359.030 354.853 C 357.539 356.083,355.493 358.144,354.484 359.433 L 352.649 361.777 328.864 340.201 C 315.782 328.334,304.031 317.599,302.751 316.345 L 300.423 314.065 307.030 307.423 C 310.664 303.770,313.864 300.781,314.142 300.781 C 314.420 300.781,325.243 312.444,338.194 326.700 M380.044 364.046 C 387.485 367.648,389.188 377.307,383.441 383.324 C 374.087 393.119,358.028 381.599,364.214 369.531 C 367.363 363.388,373.961 361.101,380.044 364.046 " stroke="none" fill="#000000" fill-rule="evenodd"></path></g></svg>